<!--?xml version="1.0" encoding="iso-8859-1"?-->
<!-- Generator: Adobe Illustrator 22.1.0, SVG Export Plug-In . SVG Version: 6.00 Build 0)  -->
<svg version="1.1" id="_x34_" xmlns="http://www.w3.org/2000/svg" xmlns:xlink="http://www.w3.org/1999/xlink" x="0px" y="0px" viewBox="0 0 484.3 512" style="opacity: 1; width: 32px; height: 34px;" xml:space="preserve">
<style type="text/css">
	.st0{fill:#D07935;}
	.st1{fill:#EA8530;}
	.st2{opacity:6.000000e-02;fill:#060001;}
	.st3{fill:#3B281F;}
	.st4{opacity:0.2;fill:#FFFFFF;}
	.st5{opacity:0.1;fill:#FFFFFF;}
	.st6{fill:#6CB14F;}
	.st7{opacity:0.3;fill:#164625;}
</style>
<g>
	<path class="st0" d="M484.3,279.9c0,133.7-108.4,232.1-242.1,232.1S0,413.6,0,279.9S108.4,27.7,242.1,27.7S484.3,146.2,484.3,279.9
		z"></path>
	<path class="st1" d="M242.1,27.7C108.4,27.7,0,146.2,0,279.9S108.4,512,242.1,512c133.7,0,242.1-98.4,242.1-232.1
		S375.9,27.7,242.1,27.7z M83.2,339.9c-5.2,0-9.4-4.1-9.4-11.7c0-7.6,6.3-13.8,9.4-13.8c3.1,0,9.4,6.2,9.4,13.8
		C92.6,335.8,88.4,339.9,83.2,339.9z M130.3,394.9c-5.2,0-9.4-4.1-9.4-11.7s6.3-13.8,9.4-13.8c3.1,0,9.4,6.2,9.4,13.8
		S135.5,394.9,130.3,394.9z M134,279c-5.2,0-9.4-4.1-9.4-11.7c0-7.6,6.3-13.8,9.4-13.8c3.1,0,9.4,6.2,9.4,13.8
		C143.4,274.9,139.2,279,134,279z M188.4,467.8c-5.2,0-9.4-4.1-9.4-11.7c0-7.6,6.3-13.8,9.4-13.8c3.1,0,9.4,6.2,9.4,13.8
		C197.9,463.7,193.7,467.8,188.4,467.8z M188.4,339.9c-5.2,0-9.4-4.1-9.4-11.7c0-7.6,6.3-13.8,9.4-13.8c3.1,0,9.4,6.2,9.4,13.8
		C197.9,335.8,193.7,339.9,188.4,339.9z M235.5,394.9c-5.2,0-9.4-4.1-9.4-11.7s6.3-13.8,9.4-13.8c3.1,0,9.4,6.2,9.4,13.8
		S240.7,394.9,235.5,394.9z M284.3,328.1c0-7.6,6.3-13.8,9.4-13.8s9.4,6.2,9.4,13.8c0,7.6-4.2,11.7-9.4,11.7
		S284.3,335.8,284.3,328.1z M303.2,467.8c-5.2,0-9.4-4.1-9.4-11.7c0-7.6,6.3-13.8,9.4-13.8s9.4,6.2,9.4,13.8
		C312.6,463.7,308.4,467.8,303.2,467.8z M295.1,177.4c-19.3,0-14.8,1.9-37.5-2.1c-22.7-4-4.6,19.8-7.9,39.4
		c-3.6,21.3-27-1.3-31-23.9c-4-22.7-14.8-16.1-33.5-4.1c-18.7,12-37.1-2.7-38.9-6.8c-1.8-4.1-0.2-17.2,18.4-25.8
		c18.7-8.6,23.2-12.9,36.6-6.2c13.3,6.7,13.6,15.9,26.1,14.8c9.4-0.9,9.9-9.6,25.9-12.8c16-3.2,26.1,3,50.7,3
		C328.8,152.7,314.4,177.4,295.1,177.4z M340.8,394.9c-5.2,0-9.4-4.1-9.4-11.7s6.3-13.8,9.4-13.8c3.1,0,9.4,6.2,9.4,13.8
		S346,394.9,340.8,394.9z M374.7,279c-5.2,0-9.4-4.1-9.4-11.7c0-7.6,6.3-13.8,9.4-13.8c3.1,0,9.4,6.2,9.4,13.8
		C384.2,274.9,379.9,279,374.7,279z M399,339.9c-5.2,0-9.4-4.1-9.4-11.7c0-7.6,6.3-13.8,9.4-13.8s9.4,6.2,9.4,13.8
		C408.5,335.8,404.2,339.9,399,339.9z"></path>
	<path class="st2" d="M479.8,276.9c0,133.8-108.4,232.1-242.1,232.1c-59.1,0-113.3-21.2-155.3-56.4C72,444,81.7,427.9,94.2,433
		c28.9,11.7,60.4,18.1,93.5,18.1c137.7,0,249.3-84.8,249.3-249.3c0-8.9-0.5-17.7-1.4-26.3c-1.4-13.3,17-18.2,22.2-5.9
		C471.9,203.3,479.8,240.8,479.8,276.9z"></path>
	<path class="st3" d="M194,57.5c14.9,15.1,26.2,33.1,33.3,52.3c7.1,19.2,9.8,39.5,8.3,59.1c-0.3,3.8-3.6,6.6-7.3,6.3
		c-3.3-0.2-5.9-2.8-6.3-6l0-0.1c-2.1-17.7-8-34.4-16.9-48.9c-8.8-14.5-20.6-26.7-34.1-35.8c-8.2-5.5-10.3-16.6-4.8-24.8
		c5.5-8.2,16.6-10.3,24.8-4.8c1,0.7,1.8,1.4,2.6,2.2L194,57.5z"></path>
	<path class="st4" d="M188.5,54.2c4.8,2.7,5.1,7.7,0.6,13.2c-4.5,5.5-17.4,15.9-21.6,12.4c-4.2-3.5-4.2-15.1,0.3-20.6
		C172.3,53.8,182.4,50.8,188.5,54.2z"></path>
	
		<ellipse transform="matrix(0.7726 -0.6349 0.6349 0.7726 -62.3449 104.8988)" class="st5" cx="115.3" cy="139.5" rx="44.5" ry="36.6"></ellipse>
	<path class="st6" d="M356.5,144.3c-55.8,37.5-112,15.2-122.3-0.2c-10.3-15.4-9.9-76,45.8-113.5C335.7-6.9,427.8-4,436.1,8.3
		C444.3,20.6,412.2,106.8,356.5,144.3z"></path>
	<path class="st7" d="M335.9,124.7c0.2-0.9,0-1.9-0.5-2.7c-0.5-0.7-1.2-1.2-2-1.4l-38.5-9.1l42.8-30l39.5,6.1c1.5,0.2,3-0.8,3.4-2.3
		c0.2-0.8,0-1.7-0.4-2.4c-0.4-0.6-1.1-1-1.8-1.2l-30.6-7.3l55.1-38.6c2-1.4,2.5-4.1,1.1-6.2c-1.4-2-4.1-2.6-6.1-1.2l-39.8,25.7
		l4.9-31.6c0.1-0.8-0.1-1.5-0.5-2.2c-0.4-0.6-1.1-1-1.8-1.2c-0.8-0.2-1.6-0.1-2.3,0.4c-0.7,0.4-1.2,1.1-1.4,1.9l-9.4,39.4
		l-40.4,26.1l6.1-39.7c0.1-0.8-0.1-1.7-0.6-2.4c-0.5-0.7-1.2-1.2-2-1.4c-0.9-0.2-1.8-0.1-2.5,0.4c-0.8,0.5-1.3,1.2-1.5,2.1
		l-11.6,48.8l-47.4,30.6c-3.5,2.5-4.4,7.3-2,10.9l0,0.1c2.5,3.5,7.4,4.4,10.9,1.9l26.3-18.4l48.9,7.5
		C333.8,127.5,335.5,126.3,335.9,124.7z"></path>
</g>
</svg>
